# AST/ASF file generated using VICON BodyLanguage
# -----------------------------------------------
:version 1.10
:name VICON
:units
  mass 1.0
  length 0.45
  angle deg
:documentation
   .ast/.asf automatically generated from VICON data using
   VICON BodyBuilder and BodyLanguage model FoxedUp or BRILLIANT.MOD
:root
   order TX TY TZ RX RY RZ
   axis XYZ
   position 0 0 0  
   orientation 0 -0 0 
:bonedata
  begin
     id 1 
     name lhipjoint
     direction 0.432694 -0.693742 0.575759 
     length 2.19277 
     axis 0 -0 0  XYZ
  end
  begin
     id 2 
     name lfemur
     direction 0.34202 -0.939693 0  
     length 6.69022  
     axis 0 -0 20  XYZ
    dof rx ry rz
    limits (-160.0 20.0)
           (-70.0 70.0)
           (-60.0 70.0)
  end
  begin
     id 3 
     name ltibia
     direction 0.34202 -0.939693 0   
     length 6.50337   
     axis 0 -0 20   XYZ
    dof rx
    limits (-10.0 170.0)
  end
  begin
     id 4 
     name lfoot
     direction 0.158999 -0.435969 0.885805   
     length 2.70564   
     axis -90 -1.13533e-015 20   XYZ
    dof rx rz
    limits (-45.0 90.0)
           (-70.0 20.0)
  end
  begin
     id 5 
     name ltoes
     direction -0.00592919 0.00964381 0.999936   
     length 1.29929   
     axis -90 -1.13533e-015 20   XYZ
    dof rx
    limits (-90.0 20.0)
  end
  begin
     id 6 
     name rhipjoint
     direction -0.414359 -0.700339 0.581234   
     length 2.17212  
     axis 0 -0 0  XYZ 
  end
  begin
     id 7 
     name rfemur
     direction -0.34202 -0.939693 0   
     length 7.17659   
     axis 0 -0 -20   XYZ
    dof rx ry rz
    limits (-160.0 20.0)
           (-70.0 70.0)
           (-70.0 60.0)
  end
  begin
     id 8 
     name rtibia
     direction -0.34202 -0.939693 0   
     length 6.36669   
     axis 0 -0 -20   XYZ
    dof rx
    limits (-10.0 170.0)
 end
 begin
     id 9 
     name rfoot
     direction -0.137064 -0.37658 0.916188   
     length 2.22351  
     axis -90 1.13533e-015 -20   XYZ
    dof rx rz
    limits (-45.0 90.0)
           (-20.0 70.0)
  end
  begin
     id 10 
     name rtoes
     direction -0.000784077 -0.00289101 0.999996   
     length 1.09522   
     axis -90 1.13533e-015 -20   XYZ
    dof rx
    limits (-90.0 20.0)
  end
  begin
     id 11 
     name lowerback
     direction -0.0176242 0.984912 -0.172157   
     length 1.65301   
     axis 0 -0 0   XYZ
    dof rx ry rz
    limits (-20.0 45.0)
           (-30.0 30.0)
           (-30.0 30.0)
  end
  begin
     id 12 
     name upperback
     direction -0.00218128 0.998776 -0.0494072   
     length 1.67776   
     axis 0 -0 0   XYZ
    dof rx ry rz
    limits (-20.0 45.0)
           (-30.0 30.0)
           (-30.0 30.0)
  end
  begin
     id 13 
     name thorax
     direction 0.00544186 0.999658 0.0255711   
     length 1.72293   
     axis 0 -0 0   XYZ
    dof rx ry rz
    limits (-20.0 45.0)
           (-30.0 30.0)
           (-30.0 30.0)
  end
  begin
     id 14 
     name lowerneck
     direction -0.105325 0.983841 0.144785   
     length 2.14226   
     axis 0 -0 0   XYZ
    dof rx ry rz
    limits (-20.0 45.0)
           (-30.0 30.0)
           (-30.0 30.0)
  end
  begin
     id 15 
     name upperneck
     direction 0.0547957 0.988053 -0.144041   
     length 2.17508   
     axis 0 -0 0   XYZ
    dof rx ry rz
    limits (-20.0 45.0)
           (-30.0 30.0)
           (-30.0 30.0)
  end
  begin
     id 16
     name head
     direction 0.0247488 0.997534 -0.0656813  
     length 2.20048  
     axis 0 -0 0   XYZ
    dof rx ry rz
    limits (-20.0 45.0)
           (-30.0 30.0)
           (-30.0 30.0)
  end
  begin
     id 17 
     name lclavicle
     direction 0.820559 0.567247 -0.0701026  
     length 4.09615  
     axis 0 -0 0   XYZ
    dof ry rz
    limits (-20.0 10.0)
           (0.0 20.0)
  end
  begin
     id 18 
     name lhumerus
     direction 0.999977 -0.0067566 -9.96392e-005   
     length 4.59333   
     axis -180 -30 -90   XYZ
    dof rx ry rz
    limits (-60.0 90.0)
           (-90.0 90.0)
           (-90.0 90.0)
  end
  begin
     id 19
     name lradius
     direction 1 -4.48982e-011 -2.53425e-027   
     length 2.81151   
     axis -180 -30 -90   XYZ
    dof rx
    limits (-10.0 170.0)
  end
  begin
     id 20
     name lwrist
     direction 1 -4.48939e-011 -7.39254e-028   
     length 1.40576   
     axis 2.56395e-016 90 90   XYZ
    dof ry
    limits (-180.0 0.0)
 end
  begin
     id 21 
     name lhand
     direction 1 -4.48939e-011 -1.47851e-027   
     length 0.895651   
     axis 9.43423e-016 90 90   XYZ
    dof rx rz
    limits (-90.0 90.0)
           (-45.0 45.0)
  end
  begin
     id 22 
     name lfingers
     direction 1 -4.48978e-011 -2.95702e-027   
     length 0.722097   
     axis 1.88685e-015 90 90   XYZ
    dof rx
    limits (0.0 90.0)
  end
  begin
     id 23
     name lthumb
     direction 0.707107 -6.34931e-011 0.707107   
     length 1.03679   
     axis -90 45 -9.86935e-015   XYZ
    dof rx rz
    limits (-45.0 45.0)
           (-45.0 45.0)
  end
  begin
     id 24 
     name rclavicle
     direction -0.831414 0.553102 -0.0531864   
     length 4.24872  
     axis 0 -0 0   XYZ 
    dof ry rz
    limits (-10.0 20.0)
           (-20.0 0.0)
  end
  begin
     id 25 
     name rhumerus
     direction -0.999916 -0.000939607 0.0129331  
     length 4.74834   
     axis -180 30 90   XYZ
    dof rx ry rz
    limits (-90.0 60.0)
           (-90.0 90.0)
           (-90.0 90.0)
  end
  begin
     id 26 
     name rradius
     direction -1 -4.48956e-011 -1.31752e-027   
     length 2.79907   
     axis -180 30 90   XYZ
    dof rx
    limits (-10.0 170.0)
  end
  begin
     id 27 
     name rwrist
     direction -1 -4.4897e-011 -7.39254e-028   
     length 1.39954   
     axis 2.56395e-016 -90 -90   XYZ
    dof ry
    limits (-180.0 0.0)
  end
  begin
     id 28
     name rhand
     direction -0.999997 -0.00250697 0.000800838   
     length 0.953304   
     axis 9.43423e-016 -90 -90   XYZ
    dof rx rz
    limits (-90.0 90.0)
           (-45.0 45.0)
  end
  begin
     id 29
     name rfingers
     direction -1 -4.48954e-011 -2.95702e-027   
     length 0.763342   
     axis 1.88685e-015 -90 -90   XYZ
    dof rx
    limits (0.0 90.0)
  end
  begin
     id 30
     name rthumb
     direction -0.709701 -0.00217037 0.7045   
     length 1.10115   
     axis -90 -45 9.86935e-015   XYZ
    dof rx rz
    limits (-45.0 45.0)
           (-45.0 45.0)
  end
:hierarchy
  begin
    root lhipjoint rhipjoint lowerback
    lhipjoint lfemur
    lfemur ltibia
    ltibia lfoot
    lfoot ltoes
    rhipjoint rfemur
    rfemur rtibia
    rtibia rfoot
    rfoot rtoes
    lowerback upperback
    upperback thorax
    thorax lowerneck lclavicle rclavicle
    lowerneck upperneck
    upperneck head
    lclavicle lhumerus
    lhumerus lradius
    lradius lwrist
    lwrist lhand lthumb
    lhand lfingers
    rclavicle rhumerus
    rhumerus rradius
    rradius rwrist
    rwrist rhand rthumb
    rhand rfingers
  end

#!OML:ASF G:\ViconDB\ViconDB\414\test\team2\shane.ASF
:FULLY-SPECIFIED
:DEGREES
17
root 3.31831 11.3885 -20.7238 23.0693 -1.03911 0.360674
lowerback 34.1668 3.38428 -4.50353
upperback 12.8242 2.82523 1.06852
thorax -3.47321 1.17628 2.56258
lowerneck -18.5827 -4.24455 -6.92506
upperneck -13.7809 -3.87455 10.1041
head -0.852475 -1.64874 4.07746
rclavicle 2.0276e-014 3.57812e-015
rhumerus -60.3771 3.96593 -54.1496
rradius 26.539
rwrist 48.0293
rhand -32.7306 -9.59786
rfingers 7.12502
rthumb -5.95417 -39.4942
lclavicle 2.0276e-014 3.57812e-015
lhumerus -56.7671 -12.4089 64.7778
lradius 14.8414
lwrist -22.5604
lhand -39.4174 4.892
lfingers 7.12502
lthumb -12.4061 34.5038
rfemur -93.9691 -34.3806 33.3086
rtibia 114.018
rfoot -41.2899 3.62726
rtoes -15.8948
lfemur -91.0305 33.63 -28.7965
ltibia 110.947
lfoot -49.1976 -29.7157
ltoes -5.97772
18
root 3.32337 11.2787 -20.6837 22.4398 -1.26779 -0.109758
lowerback 34.6534 3.5111 -4.45184
upperback 12.8131 2.97659 1.28065
thorax -3.67844 1.24092 2.69022
lowerneck -19.0229 -4.20665 -7.04511
upperneck -13.8528 -3.75289 10.3876
head -0.809825 -1.5702 4.19076
rclavicle -2.38542e-015 9.34288e-015
rhumerus -57.1943 3.67629 -55.7361
rradius 27.0574
rwrist 46.8619
rhand -33.1429 -9.61553
rfingers 7.12502
rthumb -6.35213 -39.5003
lclavicle -2.38542e-015 9.34288e-015
lhumerus -53.859 -11.3791 66.5986
lradius 14.9141
lwrist -21.5367
lhand -40.106 4.62352
lfingers 7.12502
lthumb -13.07 34.194
rfemur -93.5483 -34.5087 33.2663
rtibia 115.149
rfoot -41.6973 3.62932
rtoes -16.4434
lfemur -90.6139 34.3238 -27.8603
ltibia 112.182
lfoot -50.0087 -29.365
ltoes -6.18248
19
root 3.32822 11.1941 -20.6417 21.7872 -1.48937 -0.428412
lowerback 34.556 4.11957 -5.28411
upperback 12.9686 3.53364 2.25219
thorax -3.62059 1.44178 3.95909
lowerneck -17.9865 -4.35492 -8.18606
upperneck -15.0593 -3.71857 10.8299
head -1.27984 -1.53963 4.55337
rclavicle -2.42517e-014 0
rhumerus -53.424 3.64953 -56.1354
rradius 27.4452
rwrist 45.5358
rhand -33.6102 -8.69053
rfingers 7.12502
rthumb -6.80328 -38.5612
lclavicle -2.42517e-014 0
lhumerus -49.3426 -7.57781 66.7001
lradius 13.5173
lwrist -25.6333
lhand -41.2056 4.7042
lfingers 7.12502
lthumb -14.1297 34.2038
rfemur -92.9972 -34.6352 33.058
rtibia 116.114
rfoot -42.0068 3.4369
rtoes -16.4374
lfemur -89.775 34.737 -26.7721
ltibia 113.201
lfoot -50.972 -28.5374
ltoes -7.09618
20
root 3.33807 11.131 -20.5941 21.0061 -1.68279 -0.749593
lowerback 35.0882 3.52929 -4.14517
upperback 12.7723 3.05984 1.26533
thorax -3.86885 1.28734 2.47059
lowerneck -19.3591 -4.20581 -6.94615
upperneck -14.5642 -3.64157 11.4181
head -0.945155 -1.51991 4.51469
rclavicle -2.78299e-015 -1.78906e-015
rhumerus -49.0141 2.30968 -58.4553
rradius 26.9113
rwrist 45.6991
rhand -34.2631 -8.51497
rfingers 7.12502
rthumb -7.43355 -38.3644
lclavicle -2.78299e-015 -1.78906e-015
lhumerus -45.6053 -7.85222 67.588
lradius 13.2554
lwrist -26.0057
lhand -42.3834 5.52751
lfingers 7.12502
lthumb -15.2645 34.9443
rfemur -92.203 -34.884 32.8642
rtibia 116.887
rfoot -42.2344 3.2473
rtoes -16.4081
lfemur -88.6341 34.9827 -25.664
ltibia 114.047
lfoot -52.1728 -26.7398
ltoes -8.71922
21
root 3.35173 11.0974 -20.5446 20.1019 -1.84033 -1.02203
lowerback 35.2046 3.5358 -3.94331
upperback 12.764 3.13497 1.43813
thorax -3.92851 1.32165 2.51597
lowerneck -19.7532 -4.2029 -7.14696
upperneck -14.7412 -3.55468 11.5299
head -0.944655 -1.4558 4.58977
rclavicle -1.74931e-014 5.06901e-015
rhumerus -44.1352 1.54766 -59.2658
rradius 26.3449
rwrist 46.6992
rhand -35.0282 -8.78524
rfingers 7.12502
rthumb -8.17197 -38.6072
lclavicle -1.74931e-014 5.06901e-015
lhumerus -41.3929 -8.627 70.2765
lradius 13.097
lwrist -25.242
lhand -43.2559 6.07726
lfingers 7.12502
lthumb -16.1048 35.4281
rfemur -90.8807 -35.1619 32.3438
rtibia 117.394
rfoot -42.5392 2.97463
rtoes -17.0948
lfemur -87.0799 34.9726 -24.2929
ltibia 114.678
lfoot -52.7259 -25.5267
ltoes -9.99875
22
root 3.35834 11.0773 -20.5072 19.4837 -1.82296 -1.29625
lowerback 34.9813 3.52674 -3.76674
upperback 12.6393 3.20121 1.58526
thorax -3.99608 1.3566 2.55896
lowerneck -19.9632 -3.99709 -6.52281
upperneck -15.1573 -3.3824 11.053
head -1.08844 -1.40015 4.35192
rclavicle -1.63003e-014 1.13307e-014
rhumerus -38.7526 -0.790573 -59.2776
rradius 25.0206
rwrist 52.5984
rhand -36.1807 -10.9563
rfingers 7.12502
rthumb -9.2842 -40.7319
lclavicle -1.63003e-014 1.13307e-014
lhumerus -36.6722 -9.85749 72.4946
lradius 13.1619
lwrist -23.7889
lhand -43.9414 5.90386
lfingers 7.12502
lthumb -16.7648 35.2
rfemur -89.909 -35.208 31.9975
rtibia 117.753
rfoot -42.5934 2.58162
rtoes -17.3797
lfemur -85.8267 34.6134 -22.9932
ltibia 115.155
lfoot -53.1429 -24.0595
ltoes -11.362
23
root 3.38404 11.0833 -20.4531 18.5532 -2.0937 -1.55437
lowerback 34.8216 3.50016 -3.34646
upperback 12.5477 3.29788 1.5023
thorax -4.02546 1.41824 2.22242
lowerneck -20.0633 -3.80854 -5.96954
upperneck -15.7163 -3.18963 10.9689
head -1.27295 -1.33697 4.25381
rclavicle 9.93923e-015 -1.98785e-015
rhumerus -33.0199 -3.67002 -60.0152
rradius 24.7224
rwrist 52.2767
rhand -35.9066 -8.95347
rfingers 7.12502
rthumb -9.01971 -38.7406
lclavicle 9.93923e-015 -1.98785e-015
lhumerus -32.1717 -12.9911 74.8952
lradius 14.0593
lwrist -21.5017
lhand -44.6873 5.9473
lfingers 7.12502
lthumb -17.4827 35.1812
rfemur -88.126 -35.2427 31.1267
rtibia 117.8
rfoot -42.8872 1.84482
rtoes -18.6195
lfemur -83.8774 34.2897 -21.57
ltibia 115.41
lfoot -53.6124 -22.1694
ltoes -13.4395
24
root 3.40088 11.1104 -20.4035 17.5943 -2.27329 -1.91523
lowerback 34.4977 3.48066 -2.98267
upperback 12.5251 3.40901 1.64672
thorax -3.93986 1.47614 2.15516
lowerneck -20.3127 -3.82995 -6.3365
upperneck -16.2763 -3.03897 11.6574
head -1.3879 -1.24378 4.55135
rclavicle 1.94809e-014 9.93923e-016
rhumerus -27.0903 -4.93824 -61.7065
rradius 25.3922
rwrist 49.1985
rhand -35.1449 -9.00144
rfingers 7.12502
rthumb -8.28459 -38.819
lclavicle 1.94809e-014 9.93923e-016
lhumerus -26.8087 -14.7501 76.3834
lradius 14.7123
lwrist -20.1119
lhand -45.2568 6.42056
lfingers 7.12502
lthumb -18.0307 35.6048
rfemur -86.1785 -35.1487 30.3509
rtibia 117.659
rfoot -42.9541 1.66823
rtoes -18.6756
lfemur -81.8906 33.9597 -19.8961
ltibia 115.506
lfoot -53.8568 -21.0593
ltoes -14.8169
25
root 3.41454 11.1767 -20.3637 16.5815 -2.20521 -2.14905
lowerback 34.3985 3.36102 -2.47987
upperback 12.3438 3.42921 1.69349
thorax -4.08538 1.50259 1.93196
lowerneck -20.605 -3.94411 -6.30668
upperneck -16.7571 -3.09744 12.2841
head -1.46418 -1.27779 4.75038
rclavicle 1.55052e-014 -9.34288e-015
rhumerus -21.5292 -5.87904 -63.7327
rradius 26.6728
rwrist 45.7579
rhand -35.1057 -8.67038
rfingers 7.12502
rthumb -8.24674 -38.4894
lclavicle 1.55052e-014 -9.34288e-015
lhumerus -21.5016 -18.1554 77.4785
lradius 15.8545
lwrist -18.6452
lhand -46.2138 6.75714
lfingers 7.12502
lthumb -18.9514 35.8539
rfemur -83.9274 -35.0484 29.4241
rtibia 117.199
rfoot -42.965 0.723623
rtoes -19.2913
lfemur -79.5762 33.1401 -18.0387
ltibia 115.242
lfoot -53.5189 -21.2145
ltoes -15.1746
26
root 3.43888 11.2453 -20.3207 15.5861 -2.33359 -2.51412
lowerback 34.1203 3.28317 -2.00938
upperback 12.1122 3.49982 1.82591
thorax -4.23014 1.54848 1.80213
lowerneck -20.587 -4.03299 -6.36586
upperneck -17.4469 -3.10466 12.8397
head -1.65066 -1.29713 4.95205
rclavicle -9.93923e-015 -1.66979e-014
rhumerus -16.2415 -4.51158 -66.0598
rradius 28.7832
rwrist 41.4065
rhand -35.9108 -10.6158
rfingers 7.12502
rthumb -9.02377 -40.4028
lclavicle 1.55052e-014 -9.34288e-015
lhumerus -21.5016 -18.1554 77.4785
lradius 15.8545
lwrist -18.6452
lhand -46.2138 6.75714
lfingers 7.12502
lthumb -18.9514 35.8539
rfemur -81.5807 -34.8299 28.4716
rtibia 116.611
rfoot -42.9858 0.429309
rtoes -19.3038
lfemur -77.3236 32.4273 -16.412
ltibia 114.881
lfoot -53.5115 -20.0695
ltoes -16.4991
27
root 3.46238 11.3239 -20.2802 14.5814 -2.32034 -2.75568
lowerback 33.7187 3.18842 -1.54634
upperback 11.8608 3.55687 2.02016
thorax -4.35347 1.58702 1.74812
lowerneck -20.5484 -4.21292 -6.58631
upperneck -17.9504 -3.22144 13.3415
head -1.7717 -1.35926 5.1551
rclavicle -9.93923e-015 -1.66979e-014
rhumerus -16.2415 -4.51158 -66.0598
rradius 28.7832
rwrist 41.4065
rhand -35.9108 -10.6158
rfingers 7.12502
rthumb -9.02377 -40.4028
lclavicle -4.6118e-014 9.74045e-015
lhumerus -21.9049 -72.5823 46.7233
lradius 64.0721
lwrist 34.0408
lhand -47.1657 14.6967
lfingers 7.12502
lthumb -19.8666 43.7013
rfemur -79.3288 -34.77 27.5856
rtibia 115.842
rfoot -42.816 -0.00636673
rtoes -19.481
lfemur -75.0395 31.4278 -14.853
ltibia 114.376
lfoot -53.4355 -19.1222
ltoes -17.7764
